<svg xmlns="http://www.w3.org/2000/svg" width="784.6" height="179.6" viewBox="0 0 784.6 179.6">
    <path d="M173.5 51.8h26v126h-26v-126zm-15.4 33.1v4.9c0 16-5.6 23.2-20.2 24.7v2.3c14.6 1.5 20.2 8.7 20.2 24.7v36.3h-26v-37.2c0-10.1-3-13.1-10.8-13.1h-8.7v50.3h-26v-126h39.9c23.1 0 31.6 9.8 31.6 33.1m-26 1.4c0-10.1-3-13.1-10.8-13.1h-8.7v32.9h7.4c8.7 0 12-3.1 12-13.5l.1-6.3zm-59.7 52.1v6.3c0 23.3-8.4 33.1-31.6 33.1H0v-126h40.2c23.1 0 31.6 9.8 31.6 33.1v1.8c0 16-5.6 23.2-20.2 24.7v2.3c15.2 1.5 20.8 8.6 20.8 24.7M26 103.1h8c8.7 0 12-3.2 12-13.5v-3.2c0-10.1-3-13.1-10.8-13.1H26v29.8zm20.4 34.5c0-10.1-3-13.1-10.8-13.1H26v31.9h9.7c7.8 0 10.8-3 10.8-13.1v-5.7zM251 49.9c-23.5 0-35.5 13.2-35.5 37.8v58c0 22.9 9.3 34 29.7 34 17.1 0 24-7.3 24.8-25.1h1.8l3.4 23.2h11.4v-69.7h-35.3v19.1h10.5v18.6c0 8.8-3.4 12.6-10.2 12.6s-10.2-3.8-10.2-12.6V83.7c0-8.8 3.4-12.6 9.7-12.6s9.6 3.8 9.6 12.6V97h25.7V86.4c.2-24-11.6-36.5-35.4-36.5m399.5 106h-2.4l-9.4-104.2h-26.9l14.5 126h43.1l14-126h-24l-8.9 104.2zm-47.2-68.2v54.2c0 24.6-12.4 37.8-35.9 37.8s-35.9-13.2-35.9-37.8V87.7c0-24.6 12.4-37.8 35.9-37.8s35.9 13.2 35.9 37.8m-26-4.1c0-8.8-3.6-12.6-9.9-12.6s-9.9 3.8-9.9 12.6v62.2c0 8.8 3.6 12.6 9.9 12.6 6.3 0 9.9-3.8 9.9-12.6V83.6zm175.8-10V51.8h-58.9v126H753V156h-32.8v-31.2h30.6v-21.1h-30.6v-30l32.9-.1zm-371 0h18.2v104.2h26V73.6h18.2V51.8h-62.4v21.8zM485 49.9c-22.8 0-35 13.2-35 37.8v54.2c0 24.6 12.3 37.8 35 37.8 23.1 0 35-12.5 35-36.5v-15.4h-25.7v18.1c0 8.8-3.4 12.6-9.1 12.6s-9.1-3.8-9.1-12.6V83.7c0-8.8 3.4-12.6 9.1-12.6s9.1 3.8 9.1 12.6v16.9H520V86.4c.1-24-11.8-36.5-35-36.5m-137.6 53.8h-18.1V51.8h-26v125.9h26v-52.9h18.2v52.9h26V51.8h-26l-.1 51.9zm430.9-44.3V59c0-2-1.5-3.4-4.2-3.4h-4.6v10.8h2.2v-3.6h2.4l1.8 3.6h2.4l-2.3-4.3c1.4-.2 2.3-1.4 2.3-2.7m-6.6-1.8h2.4c1.4 0 2 .5 2 1.5v.1c0 1-.6 1.5-2 1.5h-2.4v-3.1zm2-7.7c-6.2-.1-11.2 4.8-11.3 11s4.8 11.2 11 11.3c6.2.1 11.2-4.8 11.3-11V61c.2-6-4.5-11-10.5-11.2h-.5m0 20.9c-5.3.2-9.8-4-9.9-9.4-.2-5.3 4-9.8 9.4-9.9s9.8 4 9.9 9.4V61.1c.3 5-3.6 9.3-8.6 9.6h-.8M208.3 23.8v-2.3c-13.7-1.4-20-7.8-20.8-21.4h-2.4c-.9 13.7-7.2 20-20.9 21.4v2.3c14.2 1.4 20 7.7 21 21.1h2.1c1-13.5 6.9-19.7 21-21.1z" fill="currentColor"/>
</svg>
