<svg xmlns="http://www.w3.org/2000/svg" width="578" height="90" viewBox="0 0 578 90">
    <path d="M87.1 86.4h18V52.8h29.2V38h-29.2V20.3h34V4.6h-52zM157.2 6.4c-5 0-9.3 4.1-9.3 9.3s4.3 9.3 9.3 9.3c5 0 9.3-4.1 9.3-9.3 0-5-4.3-9.3-9.3-9.3zM212.2 29.6c-7 0-12.8 2.9-17.3 6.4l-.2-.2v-5h-17v55.8H195V49c3.1-2.4 7.2-4.6 11.6-4.6 2.4 0 4.4.6 6 2.4 1.4 1.5 2 3.7 2 7.8v31.9h17.3V51.8c0-8.1-1.5-12.8-4.9-16.5-3.8-3.7-9-5.7-14.8-5.7zM336.2 29.6c-7 0-12.8 2.9-17.3 6.4l-.2-.2v-5h-17v55.8H319V49c3.1-2.4 7.2-4.6 11.6-4.6 2.4 0 4.4.6 6 2.4 1.4 1.5 2 3.7 2 7.8v31.9h17.3V51.8c0-8.1-1.5-12.8-4.9-16.5-3.8-3.7-9-5.7-14.8-5.7zM283.5 35c-4.4-3.7-11.2-5.3-18.6-5.3-8.1 0-15 2-19.4 4.3l4 13c3.7-1.5 7.8-2.6 12.4-2.6 4.1 0 7 .9 8.6 2.4 1.2 1.1 2.1 3.2 2.1 6v2.1c-3.1-.6-6.3-1.1-9.6-1.1-5.8 0-11.3 1.1-15.6 4-4 2.7-6.7 7.3-6.7 13.4 0 5.8 2.4 10.2 6.6 13 3.7 2.4 8.1 3.7 12.8 3.7 6.4 0 11.9-2 15.6-4.6h.2c3.1 3.2 7.5 3.5 12.1 3.5.8 0 1.4 0 2-.2V50.2c-.2-7-2.2-11.9-6.5-15.2zm-11 37.8c-2 1.2-4.9 2.3-7.8 2.3-4 0-7.2-2-7.2-5.5 0-4.3 4.4-5.7 8.9-5.7 1.8 0 4.3.2 6.1.8v8.1zM397.9 73.1c-9.3 0-15.7-6-15.7-14.5 0-8.4 6.4-14.7 15.6-14.7 3.8 0 7.8 1.1 11.6 2.9l4.1-13.6c-4.6-2.3-10.2-3.7-16.5-3.7-17.4 0-31.9 11.6-31.9 29.2 0 16.8 13.1 29 31 29 6.4 0 12.8-1.4 18.2-4.3l-4.1-13.3c-3.9 2-8.3 3-12.3 3zM446.9 29.6c-15.4 0-29.2 11.6-29.2 29.3 0 17.4 13.3 28.9 31.6 28.9 7.3 0 15.7-1.7 21.2-5l-3.8-12.2c-4.9 2.6-10.2 4-15.1 4-7.9 0-14.2-3.5-16.2-11.2h37.7c.2-1.5.3-4 .3-6 .1-18.8-12.7-27.8-26.5-27.8zm-11.6 22.8c1.5-6.3 6.1-9.6 11.5-9.6 5.5 0 9.9 3.7 11 9.6h-22.5zM518.4 30.8h-9V45h9v20.5c0 8.9 2 13.4 4.9 16.6 3.5 3.7 8.9 5.5 14.5 5.5 4.9 0 9.9-1.4 12.5-3.1l-3.8-12.2c-1.5.5-3.1.8-4.6.8-5.2 0-6.4-4.1-6.4-9.5V45h14.7V30.8h-14.7V13.4l-17.3 3.5v13.9"
          fill="currentColor"/>
    <path d="M566.5 68.9c5 0 9.3 4.1 9.3 9.3 0 5.2-4.3 9.3-9.3 9.3s-9.3-4.1-9.3-9.3c.2-5.2 4.3-9.3 9.3-9.3z"
          fill="#00c389"/>
    <path d="M482.5 86.4h17.1V30.8l-17.1 3.5zM148.6 86.4h17.1V30.8l-17.1 3.5z" fill="currentColor"/>
    <path d="M491.1 6.4c-5 0-9.3 4.1-9.3 9.3s4.3 9.3 9.3 9.3c5 0 9.3-4.1 9.3-9.3 0-5-4.3-9.3-9.3-9.3zM59.3 19.2l-16.5-16H19.2l-16.5 16v43.1l56.5-29.6V19.2zM31 28.7c-4.3 0-7.8-3.5-7.8-7.8s3.5-7.8 7.8-7.8 7.8 3.5 7.8 7.8c0 4.4-3.5 7.8-7.8 7.8zM2.7 75.9v10.5h56.6V46.3z"
          fill="#00c389"/>
</svg>
