<svg xmlns="http://www.w3.org/2000/svg" width="195" height="58" viewBox="0 0 289 58">
    <path fill="#040404" fill-rule="evenodd" d="M70.65 37.966A2.405 2.405 0 0 1 69.5 35.9c0-1.348 1.03-2.378 2.378-2.378.435 0 .873.117 1.189.319 2.021 1.268 4.044 1.9 5.75 1.9 1.744 0 2.536-.632 2.536-1.584v-.081c0-1.309-2.063-1.746-4.401-2.46-2.973-.872-6.343-2.262-6.343-6.387v-.08c0-4.324 3.489-6.745 7.773-6.745 2.218 0 4.518.596 6.58 1.627.871.438 1.426 1.23 1.426 2.264 0 1.349-1.07 2.38-2.418 2.38-.435 0-.715-.08-1.11-.28-1.706-.832-3.332-1.347-4.597-1.347-1.47 0-2.223.635-2.223 1.467v.08c0 1.19 2.022 1.747 4.322 2.539 2.973.99 6.422 2.419 6.422 6.306v.082c0 4.72-3.53 6.86-8.126 6.86-2.618 0-5.431-.751-8.008-2.417M89.484 21.501a3.011 3.011 0 1 1 6.024 0v.277c1.469-1.982 3.49-3.45 6.622-3.45 4.955 0 9.673 3.886 9.673 10.986v.081c0 7.102-4.637 10.99-9.673 10.99-3.212 0-5.194-1.468-6.622-3.174v6.348a3.011 3.011 0 1 1-6.024 0V21.501Zm16.293 7.894v-.081c0-3.528-2.378-5.87-5.193-5.87-2.816 0-5.153 2.342-5.153 5.87v.08c0 3.531 2.337 5.873 5.153 5.873 2.815 0 5.193-2.301 5.193-5.872ZM129.03 29.476v-.08c0-6.11 4.914-11.067 11.537-11.067 6.578 0 11.455 4.878 11.455 10.986v.081c0 6.11-4.916 11.069-11.535 11.069-6.58 0-11.457-4.88-11.457-10.99m17.047 0v-.08c0-3.133-2.261-5.87-5.59-5.87-3.448 0-5.51 2.657-5.51 5.79v.08c0 3.135 2.259 5.874 5.59 5.874 3.449 0 5.51-2.66 5.51-5.793M174.184 37.21a3.011 3.011 0 0 1-3.012 3.015 3.011 3.011 0 0 1-3.014-3.014v-.237c-1.388 1.784-3.172 3.409-6.224 3.409-4.557 0-7.215-3.016-7.215-7.893V21.501a3.012 3.012 0 1 1 6.025 0v9.086c0 2.854 1.348 4.324 3.648 4.324 2.298 0 3.766-1.47 3.766-4.324V21.5a3.012 3.012 0 1 1 6.026 0v15.71ZM177.251 33.958v-17.89a3.013 3.013 0 1 1 6.025 0v2.656h2.656a2.573 2.573 0 0 1 2.577 2.579 2.573 2.573 0 0 1-2.577 2.578h-2.656v9.086c0 1.387.594 2.063 1.943 2.063.197 0 .594-.04.713-.04 1.349 0 2.499 1.11 2.499 2.498 0 1.072-.715 1.943-1.546 2.264-1.112.437-2.142.592-3.45.592-3.687 0-6.184-1.464-6.184-6.386M201.012 40.383c-2.934 0-6.184-1.15-8.484-3.015l1.545-2.18c2.221 1.665 4.68 2.618 7.096 2.618 2.459 0 4.241-1.27 4.241-3.253v-.08c0-2.062-2.417-2.855-5.111-3.609-3.212-.914-6.779-2.024-6.779-5.794v-.078c0-3.53 2.934-5.873 6.978-5.873 2.495 0 5.272.872 7.372 2.264l-1.388 2.3c-1.903-1.23-4.083-1.987-6.066-1.987-2.417 0-3.962 1.271-3.962 2.978v.078c0 1.945 2.536 2.7 5.272 3.534 3.171.95 6.58 2.18 6.58 5.87v.08c0 3.887-3.212 6.147-7.294 6.147M221.345 40.464c-6.144 0-10.626-4.84-10.626-10.67 0-5.834 4.521-10.753 10.705-10.753 6.143 0 10.665 4.84 10.665 10.67 0 5.834-4.56 10.753-10.744 10.753m0-18.727c-4.442 0-7.491 3.533-7.491 7.975 0 4.446 3.251 8.014 7.57 8.014 4.439 0 7.533-3.53 7.533-7.933 0-4.482-3.291-8.056-7.612-8.056M244.848 40.464c-5.986 0-10.504-4.88-10.504-10.67 0-5.834 4.518-10.753 10.504-10.753 3.886 0 6.304 1.626 8.207 3.65l-2.023 2.142c-1.625-1.705-3.448-3.096-6.223-3.096-4.163 0-7.333 3.533-7.333 7.975 0 4.484 3.251 8.014 7.531 8.014 2.618 0 4.637-1.31 6.266-3.056l1.94 1.826c-2.061 2.303-4.518 3.968-8.365 3.968M256.34 14.994h3.49v-3.37h-3.49v3.37Zm.197 24.995h3.055V19.477h-3.055v20.512ZM265.891 23.405l-.911-2.5c2.26-1.03 4.48-1.706 7.455-1.706 5.587 0 8.72 2.858 8.72 8.253v12.537h-2.936v-3.095c-1.427 1.865-3.803 3.529-7.411 3.529-3.806 0-7.652-2.142-7.652-6.425 0-4.364 3.569-6.665 8.76-6.665 2.617 0 4.482.355 6.303.873v-.714c0-3.691-2.261-5.594-6.103-5.594-2.419 0-4.321.633-6.225 1.507m.357 10.473c0 2.618 2.379 4.127 5.153 4.127 3.769 0 6.86-2.301 6.86-5.556v-1.982a21.423 21.423 0 0 0-6.029-.87c-3.843 0-5.984 1.664-5.984 4.281M285.946 39.99H289V11.026h-3.054V39.99ZM131.188 16.701s-2.625 1.167-4.925 1.125c-2.221-.044-3.317 1.083-3.317 1.083l.003.01c-.948.681-1.728 1.86-2.304 3.138v-.556a3.013 3.013 0 1 0-6.025 0v15.71a3.009 3.009 0 0 0 3.012 3.014 3.01 3.01 0 0 0 3.013-3.014v-7.457c.433-3.194 2.06-5.01 4.685-5.625.151-.033.294-.08.435-.129l.008-.003c.004-.003.013-.003.019-.006 6.073-1.765 5.396-7.29 5.396-7.29" clip-rule="evenodd"/>
    <path fill="#2BB656" fill-rule="evenodd" d="M19.804 0C8.866 0 0 8.873 0 19.82v36.467c0 1.168 1.412 1.752 2.238.925L12.996 46.45h13.615c10.94 0 19.806-8.872 19.806-19.818V0H19.804Z" clip-rule="evenodd"/>
    <path fill="#006B40" fill-rule="evenodd" d="M12.996 46.451H3.093l6.187 3.717 3.716-3.717Z" clip-rule="evenodd"/>
    <path fill="#0CA750" fill-rule="evenodd" d="M46.416 0H19.805v26.632L46.417 0Z" clip-rule="evenodd"/>
    <path fill="#006B40" fill-rule="evenodd" d="M19.804 0C8.866 0 0 8.874 0 19.82v26.63l19.804-19.818V0Z" clip-rule="evenodd"/>
    <path fill="#75DD66" fill-rule="evenodd" d="M46.416 0 19.805 26.632h26.613V0Z" clip-rule="evenodd"/>
</svg>
